<?xml version="1.0" encoding="UTF-8"?>
<svg version="1.1" xmlns="http://www.w3.org/2000/svg" width="162" height="144">
<path d="M0 0 C53.46 0 106.92 0 162 0 C162 47.52 162 95.04 162 144 C108.54 144 55.08 144 0 144 C0 96.48 0 48.96 0 0 Z " fill="#DEA06A" transform="translate(0,0)"/>
<path d="M0 0 C53.46 0 106.92 0 162 0 C162 47.52 162 95.04 162 144 C108.54 144 55.08 144 0 144 C0 96.48 0 48.96 0 0 Z M56 8 C55.00355469 8.40089844 54.00710937 8.80179688 52.98046875 9.21484375 C44.49678939 12.97205733 38.4437346 18.49998824 32 25 C31.33097656 25.63550781 30.66195313 26.27101563 29.97265625 26.92578125 C19.15461695 37.98912757 14.03304518 54.26163426 13.625 69.375 C14.10792696 87.48476097 19.92393141 104.99008353 33 118 C48.77270202 131.88661019 66.7705724 139.30314567 88 138 C105.9256718 135.31537698 123.25290902 126.82331405 134.5 112.4375 C146.07468363 96.48583516 151.54887821 78.56591435 148.70263672 58.95068359 C145.83940383 43.40136369 137.96542651 31.85051934 127 21 C126.42765625 20.40574219 125.8553125 19.81148437 125.265625 19.19921875 C112.19923735 6.70532747 95.22080136 3.49548613 77.86450195 3.57763672 C69.89225188 3.7681489 63.34504768 4.73211965 56 8 Z " fill="#FEFEFD" transform="translate(0,0)"/>
<path d="M0 0 C1.46386719 2.65209961 1.46386719 2.65209961 2.796875 6.15234375 C3.0353717 6.76767471 3.27386841 7.38300568 3.51959229 8.01698303 C4.27783522 9.98519373 5.01359694 11.96102877 5.75 13.9375 C6.26035764 15.26549784 6.77206091 16.59297939 7.28515625 17.91992188 C11 27.62043164 11 27.62043164 11 30 C9.390625 31.11328125 9.390625 31.11328125 7.25 32.3125 C2.14515718 35.38444081 -0.52561304 38.10245216 -2 44 C15.16 44.33 32.32 44.66 50 45 C50 46.65 50 48.3 50 50 C45.16610065 50.14545024 40.33212005 50.28769214 35.49804688 50.42724609 C33.86130364 50.47491512 32.22458357 50.52338807 30.58789062 50.57275391 C19.72089696 50.89983173 8.87227908 51.06748311 -2 51 C-1.505 54.465 -1.505 54.465 -1 58 C-22.31754051 67.75823302 -22.31754051 67.75823302 -31.1875 71.625 C-32.78658203 72.32496094 -32.78658203 72.32496094 -34.41796875 73.0390625 C-37 74 -37 74 -40 74 C-41.76462683 70.91190305 -42 69.76687864 -42 66 C-37.35562201 64.16590231 -32.71083774 62.33283872 -28.06567383 60.50073242 C-26.48548349 59.87731886 -24.90540456 59.25362283 -23.32543945 58.62963867 C-21.05449179 57.73281768 -18.78314546 56.83701315 -16.51171875 55.94140625 C-15.80536789 55.6622084 -15.09901703 55.38301056 -14.3712616 55.09535217 C-11.59607943 54.00204089 -8.83037245 52.94345748 -6 52 C-19.53 52 -33.06 52 -47 52 C-47 49.03 -47 46.06 -47 43 C-33.8 43 -20.6 43 -7 43 C-17.7698686 38.76571829 -17.7698686 38.76571829 -28.54052734 34.53344727 C-29.88902612 34.00283991 -31.23749802 33.47216426 -32.5859375 32.94140625 C-33.28823486 32.66582886 -33.99053223 32.39025146 -34.71411133 32.10632324 C-39.7718564 30.1140718 -39.7718564 30.1140718 -42 29 C-41.67 26.69 -41.34 24.38 -41 22 C-36.40794471 20.50348409 -33.36683059 22.25009187 -29.171875 24.18359375 C-28.42286926 24.51794937 -27.67386353 24.85230499 -26.90216064 25.1967926 C-24.51309455 26.26625695 -22.13163388 27.35159979 -19.75 28.4375 C-18.13068378 29.16577162 -16.51089707 29.89299808 -14.890625 30.61914062 C-10.92152399 32.40068272 -6.95916827 34.19649832 -3 36 C-8.13037386 29.54016487 -13.82478839 24.08870572 -20.06640625 18.7109375 C-22.83844894 16.25809972 -25.41571701 13.64889006 -28 11 C-26.48601545 7.21503862 -25.9855604 6.9927802 -22 5 C-13.75 13.25 -5.5 21.5 3 30 C-1.69530383 17.29358012 -1.69530383 17.29358012 -7.21484375 5.13671875 C-8 3 -8 3 -7 0 C-2.88112454 -1.37295849 -2.88112454 -1.37295849 0 0 Z " fill="#FDF9F7" transform="translate(80,23)"/>
<path d="M0 0 C2.7850356 1.40127577 5.28901335 3.18480696 7.86328125 4.9375 C8.85328125 5.2675 9.84328125 5.5975 10.86328125 5.9375 C8.62516726 12.94156547 5.9932286 19.71026643 3.17578125 26.5 C2.76005859 27.50869141 2.34433594 28.51738281 1.91601562 29.55664062 C0.90112146 32.0180506 -0.11650128 34.47829283 -1.13671875 36.9375 C-3.11671875 36.6075 -5.09671875 36.2775 -7.13671875 35.9375 C-8.45234905 31.99060911 -7.46638998 30.73056293 -5.828125 26.95703125 C-5.07885742 25.21196289 -5.07885742 25.21196289 -4.31445312 23.43164062 C-3.77624809 22.20433654 -3.23783392 20.97712415 -2.69921875 19.75 C-2.16383402 18.51144753 -1.62931799 17.27251915 -1.09570312 16.03320312 C0.21544209 12.99748852 1.53540239 9.96592356 2.86328125 6.9375 C-0.65853 9.66724631 -3.86023696 12.54310543 -7 15.703125 C-8.3293457 17.03730469 -8.3293457 17.03730469 -9.68554688 18.3984375 C-10.59755859 19.31882812 -11.50957031 20.23921875 -12.44921875 21.1875 C-13.38974071 22.13304456 -14.33049384 23.07835925 -15.27148438 24.0234375 C-17.56217679 26.32587706 -19.85049611 28.63062351 -22.13671875 30.9375 C-25.50420387 29.41802501 -26.74512212 28.41649158 -28.13671875 24.9375 C-24.04978481 20.73562104 -19.8486465 16.78398535 -15.38671875 12.984375 C-13.61647663 11.3739464 -11.96966227 9.7475541 -10.32421875 8.015625 C-9.83791992 7.50805664 -9.35162109 7.00048828 -8.85058594 6.47753906 C-7.88704284 5.4638583 -6.93416559 4.43991352 -5.99316406 3.40527344 C-2.66956943 -0.07808613 -2.66956943 -0.07808613 0 0 Z " fill="#FDFAF8" transform="translate(80.13671875,82.0625)"/>
<path d="M0 0 C4.33935821 2.28889224 7.17292186 5.3424318 9.90234375 9.3125 C9.90234375 10.6325 9.90234375 11.9525 9.90234375 13.3125 C-1.31765625 13.3125 -12.53765625 13.3125 -24.09765625 13.3125 C-22.96366932 7.64256536 -22.96366932 7.64256536 -20.28515625 4.625 C-19.78371094 4.04363281 -19.28226562 3.46226563 -18.765625 2.86328125 C-13.71133569 -1.83590577 -6.40094406 -2.09788856 0 0 Z " fill="#DE9E67" transform="translate(102.09765625,53.6875)"/>
<path d="M0 0 C1.98 0 3.96 0 6 0 C6 8.91 6 17.82 6 27 C4.02 27 2.04 27 0 27 C0 18.09 0 9.18 0 0 Z " fill="#FFFFFF" transform="translate(92,89)"/>
<path d="M0 0 C1.98 0 3.96 0 6 0 C6 8.91 6 17.82 6 27 C4.02 27 2.04 27 0 27 C0 18.09 0 9.18 0 0 Z " fill="#FFFFFF" transform="translate(92,25)"/>
<path d="M0 0 C1.34554945 2.91118213 2.67424529 5.82975653 4 8.75 C4.3815625 9.575 4.763125 10.4 5.15625 11.25 C5.5171875 12.04921875 5.878125 12.8484375 6.25 13.671875 C6.58515625 14.4050293 6.9203125 15.13818359 7.265625 15.89355469 C8 18 8 18 8 22 C6.35 22.33 4.7 22.66 3 23 C-0.59727921 16.11976695 -3.76686274 9.44379088 -6 2 C-2.25 0 -2.25 0 0 0 Z " fill="#FDF9F6" transform="translate(105,86)"/>
<path d="M0 0 C2.97 0.495 2.97 0.495 6 1 C5.29807915 5.93321834 3.36469225 10.25974682 1.4375 14.8125 C1.10814453 15.60076172 0.77878906 16.38902344 0.43945312 17.20117188 C-0.36958906 19.13583796 -1.18423852 21.06815753 -2 23 C-3.98 22.34 -5.96 21.68 -8 21 C-2.81321185 6.21867882 -2.81321185 6.21867882 0 0 Z " fill="#FDF9F6" transform="translate(107,32)"/>
<path d="M0 0 C0.66 0 1.32 0 2 0 C3.55078125 1.57421875 3.55078125 1.57421875 5.3125 3.6875 C8.08499308 6.95300964 10.92600859 10.01915985 14 13 C13.34 14.32 12.68 15.64 12 17 C9 17 9 17 6.08203125 14.375 C4.98449244 13.25750594 3.89492105 12.13214357 2.8125 11 C2.25369141 10.42765625 1.69488281 9.8553125 1.11914062 9.265625 C-0.26073093 7.85037212 -1.63126734 6.42602845 -3 5 C-1.125 1.125 -1.125 1.125 0 0 Z " fill="#FCF8F5" transform="translate(109,81)"/>
<path d="M0 0 C0.55429688 0.26167969 1.10859375 0.52335937 1.6796875 0.79296875 C1.6796875 4.79296875 1.6796875 4.79296875 -0.9453125 7.80859375 C-2.06031822 8.89705172 -3.18578335 9.974876 -4.3203125 11.04296875 C-4.89265625 11.59726562 -5.465 12.1515625 -6.0546875 12.72265625 C-7.46774307 14.08860997 -8.89290008 15.44202486 -10.3203125 16.79296875 C-11.6403125 15.80296875 -12.9603125 14.81296875 -14.3203125 13.79296875 C-12.73074966 9.97980397 -10.31270553 7.42018475 -7.4453125 4.48046875 C-6.58164063 3.57683594 -5.71796875 2.67320313 -4.828125 1.7421875 C-2.3203125 -0.20703125 -2.3203125 -0.20703125 0 0 Z " fill="#FDF9F6" transform="translate(120.3203125,43.20703125)"/>
<path d="M0 0 C0.33 1.65 0.66 3.3 1 5 C-1.10084209 6.00696568 -3.20579489 7.0053589 -5.3125 8 C-6.48425781 8.556875 -7.65601562 9.11375 -8.86328125 9.6875 C-12 11 -12 11 -15 11 C-15.33 9.35 -15.66 7.7 -16 6 C-4.52427184 0 -4.52427184 0 0 0 Z " fill="#FCF6F2" transform="translate(127,55)"/>
<path d="M0 0 C0.33 0.66 0.66 1.32 1 2 C-7.33333333 10.33333333 -15.66666667 18.66666667 -24 27 C-24.66 26.67 -25.32 26.34 -26 26 C-17.42 17.42 -8.84 8.84 0 0 Z " fill="#E2AB7B" transform="translate(83,87)"/>
</svg>
